name D:\school\WTK\thesis\model\3dpredictsim\Results\MidTarsalJoint\Fal_s1_bCst_PF_Natali2010_ls150_MT_k200_d010_MTP_T5_ig23.mot
datacolumns 128
datarows 4
range 1.15083385 1.18535886
endheader
time	pelvis_tilt	pelvis_list	pelvis_rotation	pelvis_tx	pelvis_ty	pelvis_tz	hip_flexion_l	hip_adduction_l	hip_rotation_l	hip_flexion_r	hip_adduction_r	hip_rotation_r	knee_angle_l	knee_angle_r	ankle_angle_l	ankle_angle_r	subtalar_angle_l	subtalar_angle_r	mtj_angle_l	mtj_angle_r	mtp_angle_l	mtp_angle_r	lumbar_extension	lumbar_bending	lumbar_rotation	arm_flex_l	arm_add_l	arm_rot_l	arm_flex_r	arm_add_r	arm_rot_r	elbow_flex_l	elbow_flex_r	pro_sup_l	pro_sup_r	glut_med1_l/activation	glut_med2_l/activation	glut_med3_l/activation	glut_min1_l/activation	glut_min2_l/activation	glut_min3_l/activation	semimem_l/activation	semiten_l/activation	bifemlh_l/activation	bifemsh_l/activation	sar_l/activation	add_long_l/activation	add_brev_l/activation	add_mag1_l/activation	add_mag2_l/activation	add_mag3_l/activation	tfl_l/activation	pect_l/activation	grac_l/activation	glut_max1_l/activation	glut_max2_l/activation	glut_max3_l/activation	iliacus_l/activation	psoas_l/activation	quad_fem_l/activation	gem_l/activation	peri_l/activation	rect_fem_l/activation	vas_med_l/activation	vas_int_l/activation	vas_lat_l/activation	med_gas_l/activation	lat_gas_l/activation	soleus_l/activation	tib_post_l/activation	flex_dig_l/activation	flex_hal_l/activation	tib_ant_l/activation	per_brev_l/activation	per_long_l/activation	per_tert_l/activation	ext_dig_l/activation	ext_hal_l/activation	ercspn_l/activation	intobl_l/activation	extobl_l/activation	glut_med1_r/activation	glut_med2_r/activation	glut_med3_r/activation	glut_min1_r/activation	glut_min2_r/activation	glut_min3_r/activation	semimem_r/activation	semiten_r/activation	bifemlh_r/activation	bifemsh_r/activation	sar_r/activation	add_long_r/activation	add_brev_r/activation	add_mag1_r/activation	add_mag2_r/activation	add_mag3_r/activation	tfl_r/activation	pect_r/activation	grac_r/activation	glut_max1_r/activation	glut_max2_r/activation	glut_max3_r/activation	iliacus_r/activation	psoas_r/activation	quad_fem_r/activation	gem_r/activation	peri_r/activation	rect_fem_r/activation	vas_med_r/activation	vas_int_r/activation	vas_lat_r/activation	med_gas_r/activation	lat_gas_r/activation	soleus_r/activation	tib_post_r/activation	flex_dig_r/activation	flex_hal_r/activation	tib_ant_r/activation	per_brev_r/activation	per_long_r/activation	per_tert_r/activation	ext_dig_r/activation	ext_hal_r/activation	ercspn_r/activation	intobl_r/activation	extobl_r/activation	
          1.15083385	         -2.92842163	         -2.38610788	          5.97947489	          1.43854231	          0.91765493	         -0.00123213	        -16.45336287	         -1.76722890	          6.73734307	         28.62126651	          3.88480680	         -1.98471366	        -11.13814864	        -11.13793536	         -3.83283198	          4.40373295	         10.88996784	         -4.79834276	          5.44038830	         -0.03635202	         10.30050590	         -0.84528603	         -1.75684354	          0.60799107	         -2.26493901	          4.85676916	        -13.47135141	         17.67067170	         -5.87749029	        -13.44981950	          6.97502453	         36.04195799	         15.49485896	         86.51662706	         86.51662706	          0.21332026	          0.08464296	          0.06268473	          0.23957796	          0.16742075	          0.08740993	          0.05000469	          0.05000107	          0.05000127	          0.05000035	          0.09185006	          0.16147429	          0.05958918	          0.05959156	          0.05958967	          0.05959052	          0.25374485	          0.05985499	          0.05002258	          0.05000671	          0.05000567	          0.05001799	          0.34030447	          0.57766096	          0.05883849	          0.05959851	          0.05959173	          0.21043114	          0.11126750	          0.12775583	          0.15338944	          0.23494504	          0.31900377	          0.29489524	          0.21683351	          0.19986126	          0.26668303	          0.05000005	          0.05000031	          0.14328503	          0.05000021	          0.05000005	          0.05000028	          0.05951846	          0.06480553	          0.05959110	          0.05000003	          0.05000011	          0.10493627	          0.05000013	          0.05000014	          0.05000016	          0.11488594	          0.05314232	          0.17131454	          0.05000026	          0.05003081	          0.12021231	          0.28023573	          0.31513115	          0.20815677	          0.11005857	          0.05000107	          0.07102781	          0.13558069	          0.05004097	          0.08968554	          0.12733995	          0.05000026	          0.05003661	          0.47163590	          0.23648043	          0.11726174	          0.05959328	          0.14538881	          0.14568995	          0.12473802	          0.06249640	          0.06108788	          0.05000016	          0.05959048	          0.05000534	          0.05958994	          0.47264234	          0.28388208	          0.20320021	          0.18626965	          0.43086014	          0.18210014	          0.05000001	          0.09834067	          0.08464304	
          1.16234218	         -2.92232725	         -2.46618381	          6.22290782	          1.45632817	          0.91673720	         -0.00106485	        -16.30977928	         -2.06826556	          6.53965599	         27.81175452	          4.14820315	         -1.71294624	        -13.05292488	        -11.61080356	         -4.51102353	          3.87467464	         11.85974089	         -5.19165007	          4.16177660	         -0.27533785	         12.29540072	         -0.84322726	         -1.52822873	          0.81175860	         -2.32483459	          4.44687238	        -13.48195039	         17.86242731	         -6.83254819	        -13.45494099	          6.78401538	         37.25470945	         15.18289588	         86.51662706	         86.51662706	          0.33034625	          0.07102087	          0.05260638	          0.30877827	          0.14047692	          0.07334258	          0.05000314	          0.05000044	          0.05000037	          0.05000080	          0.07709899	          0.13548727	          0.05000061	          0.05000151	          0.05000175	          0.05000108	          0.23563687	          0.05022524	          0.05000246	          0.05001158	          0.05000456	          0.05000168	          0.28559557	          0.54971711	          0.05000120	          0.05000834	          0.05000159	          0.17656504	          0.09336071	          0.10719546	          0.12870365	          0.19713370	          0.26766429	          0.24743569	          0.18193706	          0.16769646	          0.22376409	          0.05000026	          0.07982548	          0.17107001	          0.05000056	          0.06225429	          0.05000094	          0.05129606	          0.05437594	          0.05000073	          0.24192121	          0.24640850	          0.30110807	          0.36710099	          0.23593105	          0.21382707	          0.10401487	          0.05710248	          0.14401041	          0.08463747	          0.05000474	          0.10086580	          0.23513556	          0.26441509	          0.17465702	          0.11323609	          0.05000095	          0.05959875	          0.11376186	          0.05000124	          0.11277972	          0.10684655	          0.05324783	          0.05000105	          0.39573233	          0.19842222	          0.22393350	          0.05000257	          0.12199053	          0.12224322	          0.10466319	          0.05243857	          0.05125684	          0.05098775	          0.05000040	          0.05000084	          0.05000119	          0.55092050	          0.33745033	          0.17408327	          0.34434411	          0.50140109	          0.18107293	          0.05999306	          0.11871696	          0.07102085	
          1.17385052	         -2.91433108	         -2.53899103	          6.42801429	          1.47419394	          0.91590202	         -0.00087626	        -16.06016126	         -2.35553938	          6.35707767	         26.95789646	          4.38642966	         -1.44220514	        -15.10334271	        -12.04649805	         -5.32994848	          3.36531306	         12.78557378	         -5.58844642	          2.74164258	         -0.21984818	         14.31230101	         -0.79830208	         -1.30339971	          1.01655425	         -2.37455141	          3.98860958	        -13.49808340	         17.98802637	         -7.76373250	        -13.46135755	          6.65758780	         38.44028350	         14.89765299	         86.51662706	         86.51662706	          0.27718388	          0.05959104	          0.05000015	          0.25908516	          0.11786916	          0.06153914	          0.05000447	          0.05000046	          0.05000039	          0.05000041	          0.06469153	          0.14521646	          0.05049691	          0.05000421	          0.05000458	          0.05000242	          0.19771483	          0.07102709	          0.05000194	          0.05000301	          0.05000200	          0.05000141	          0.23963280	          0.50391153	          0.05000028	          0.05000102	          0.05000033	          0.14814922	          0.11945706	          0.12019363	          0.12021482	          0.16540760	          0.22458723	          0.20761414	          0.15265674	          0.14070815	          0.18775236	          0.09896711	          0.13315854	          0.16075509	          0.05000200	          0.13665826	          0.05000171	          0.07683323	          0.05000003	          0.05000008	          0.34081421	          0.34165082	          0.36786826	          0.30802132	          0.19796287	          0.20583093	          0.08976546	          0.08693829	          0.12083472	          0.07101673	          0.05000122	          0.08463285	          0.19729367	          0.22186155	          0.14664614	          0.15842538	          0.05000059	          0.05000860	          0.09545515	          0.21304405	          0.17922285	          0.15529189	          0.05000016	          0.05000018	          0.33204447	          0.16648890	          0.18789513	          0.05000013	          0.13782940	          0.15135879	          0.10878854	          0.05000006	          0.05000011	          0.05000002	          0.05000004	          0.05000023	          0.05000023	          0.60894924	          0.29412954	          0.15814946	          0.56800596	          0.53969577	          0.29027193	          0.07947950	          0.09961103	          0.05959099	
          1.18535886	         -2.90498289	         -2.60632452	          6.59610270	          1.49194126	          0.91522164	         -0.00065820	        -15.67819660	         -2.62405909	          6.18349541	         26.15642173	          4.63347238	         -1.17212510	        -17.30583424	        -12.55253416	         -6.27092164	          2.82399938	         13.64365101	         -5.98508128	          1.23103887	         -0.24406782	         16.09538693	         -0.78838471	         -1.09676389	          1.22471542	         -2.41638711	          3.52576351	        -13.51645443	         18.08342051	         -8.63180177	        -13.46724368	          6.58689247	         39.55215961	         14.62016758	         86.51662706	         86.51662706	          0.23257500	          0.05000076	          0.05000011	          0.21738914	          0.09889982	          0.05163536	          0.05000332	          0.05000054	          0.05000059	          0.05000021	          0.05428081	          0.16414398	          0.12875746	          0.05000209	          0.05001594	          0.12022205	          0.16589572	          0.05959820	          0.05000076	          0.05000324	          0.05000218	          0.05000142	          0.20106708	          0.45221325	          0.05000020	          0.05000077	          0.05000020	          0.12430655	          0.10087629	          0.10087622	          0.10087630	          0.13878740	          0.18844286	          0.17420134	          0.12808871	          0.11806332	          0.15753629	          0.17578883	          0.14156723	          0.13730273	          0.10823401	          0.20232204	          0.13900292	          0.10265941	          0.05000005	          0.05000008	          0.43930536	          0.44149491	          0.46432502	          0.27541648	          0.23710689	          0.32335484	          0.08093113	          0.09645557	          0.10432316	          0.05958824	          0.05000066	          0.07101244	          0.16554219	          0.19998267	          0.22397751	          0.18429120	          0.05000052	          0.05001174	          0.09614682	          0.27765215	          0.22332414	          0.19409476	          0.05000020	          0.05000018	          0.27860633	          0.13969483	          0.20091100	          0.05000012	          0.23211520	          0.24076485	          0.19206764	          0.05000009	          0.05000021	          0.05000003	          0.08359400	          0.05000752	          0.05000198	          0.69688063	          0.24679327	          0.13269739	          0.47659303	          0.52413758	          0.33066296	          0.09374153	          0.08357995	          0.05000063	
